<?xml version="1.0" encoding="utf-8"?>
<!-- Generator: Adobe Illustrator 18.1.1, SVG Export Plug-In . SVG Version: 6.00 Build 0)  -->
<!DOCTYPE svg PUBLIC "-//W3C//DTD SVG 1.1//EN" "http://www.w3.org/Graphics/SVG/1.1/DTD/svg11.dtd">
<svg version="1.1" xmlns="http://www.w3.org/2000/svg" xmlns:xlink="http://www.w3.org/1999/xlink" x="0px" y="0px" width="240px"
	 height="240px" viewBox="0 0 240 240" enable-background="new 0 0 240 240" xml:space="preserve">
<g id="data">
	<path d="M149,104L104,2.4c-0.6-1.3-2.3-2.4-3.8-2.4H72.8c-1.5,0-2.4,1.1-2,2.5L96,104H41L17.6,77c-1-1.1-2.9-1.4-4.2-0.8L1.5,81.7
		c-1.3,0.6-1.9,2.2-1.2,3.5L18,120L0.3,154.8c-0.7,1.3-0.1,2.8,1.2,3.5l11.9,5.6c1.3,0.6,3.2,0.3,4.2-0.8L41,136h55L70.8,237.5
		c-0.4,1.4,0.5,2.5,2,2.5h27.4c1.5,0,3.2-1.1,3.8-2.4L149,136h75c8.8,0,16-7.2,16-16v0c0-8.8-7.2-16-16-16H149z"/>
</g>
<g id="frame">
	<rect fill="none" width="240" height="240"/>
</g>
</svg>
