<?xml version="1.0" encoding="utf-8"?>
<!-- Generator: Adobe Illustrator 18.1.1, SVG Export Plug-In . SVG Version: 6.00 Build 0)  -->
<!DOCTYPE svg PUBLIC "-//W3C//DTD SVG 1.1//EN" "http://www.w3.org/Graphics/SVG/1.1/DTD/svg11.dtd">
<svg version="1.1" xmlns="http://www.w3.org/2000/svg" xmlns:xlink="http://www.w3.org/1999/xlink" x="0px" y="0px" width="240px"
	 height="240px" viewBox="0 0 240 240" enable-background="new 0 0 240 240" xml:space="preserve">
<g id="data">
	<path d="M220.3,182.8l-8.1-153c-0.4-7.6-3.5-8.7-14.1-13.9c0,0-25.7-13.9-78.1-13.9S41.9,16,41.9,16c-10.7,5.1-13.8,6.3-14.1,13.9
		l-8.1,153c-0.4,7.6,5.1,9.9,12.8,12.5c0,0,6,1.3,11.5,3v38.8c0,1.5,1.2,2.8,2.7,2.8h18.6c1.5,0,2.7-1.3,2.7-2.8v-38.8
		c12.7,1.3,28.2,2.2,52,2.2s39.3-0.9,52-2.2v38.9c0,1.5,1.2,2.8,2.7,2.8h18.6c1.5,0,2.7-1.2,2.7-2.8v-38.9c5.5-1.7,11.5-3,11.5-3
		C215.2,192.7,220.7,190.4,220.3,182.8z M90,25h60v12H90V25z M52.7,182.8c-6.7,0-12.1-5.6-12.1-12.5c0-6.9,5.4-12.5,12.1-12.5
		s12.1,5.6,12.1,12.5C64.8,177.2,59.4,182.8,52.7,182.8z M187.3,182.8c-6.7,0-12.1-5.6-12.1-12.5c0-6.9,5.4-12.5,12.1-12.5
		s12.1,5.6,12.1,12.5C199.4,177.2,194,182.8,187.3,182.8z M39.2,120l2.7-70h156.2l2.7,70H39.2z"/>
</g>
<g id="frame">
	<rect fill="none" width="240" height="240"/>
</g>
</svg>
