<?xml version="1.0" encoding="utf-8"?>
<!-- Generator: Adobe Illustrator 18.1.1, SVG Export Plug-In . SVG Version: 6.00 Build 0)  -->
<!DOCTYPE svg PUBLIC "-//W3C//DTD SVG 1.1//EN" "http://www.w3.org/Graphics/SVG/1.1/DTD/svg11.dtd">
<svg version="1.1" xmlns="http://www.w3.org/2000/svg" xmlns:xlink="http://www.w3.org/1999/xlink" x="0px" y="0px" width="240px"
	 height="240px" viewBox="0 0 240 240" enable-background="new 0 0 240 240" xml:space="preserve">
<g id="data">
	<path d="M209.8,11.6c0,0-47.6-11.6-92.4-11.6c-44.8,0-89,11.6-89,11.6C20.3,14.4,16,16.8,16,23.1v160.8c0,6.4,5.6,10.1,12.4,10.1
		h23.1l-18.6,46h24.8l18.6-46h41.1h45.8l18.6,46h24.8l-18.6-46h23.4c6.8,0,12.4-3.7,12.4-10.1V23.1C224,16.8,218,14.4,209.8,11.6z
		 M45.3,165.7c-6.2,0-11.2-4.7-11.2-10.4c0-5.7,5-10.4,11.2-10.4c6.2,0,11.2,4.7,11.2,10.4C56.5,161,51.4,165.7,45.3,165.7z
		 M194.4,165.7c-6.2,0-11.2-4.7-11.2-10.4c0-5.8,5-10.4,11.2-10.4c6.2,0,11.2,4.7,11.2,10.4C205.5,161,200.5,165.7,194.4,165.7z
		 M202,124H38V30h164V124z"/>
</g>
<g id="frame">
	<rect fill="none" width="240" height="240"/>
</g>
</svg>
